<?xml version="1.0" standalone="no"?>
<!DOCTYPE svg PUBLIC "-//W3C//DTD SVG 20010904//EN"
 "http://www.w3.org/TR/2001/REC-SVG-20010904/DTD/svg10.dtd">
<svg version="1.0" xmlns="http://www.w3.org/2000/svg"
 width="690.000000pt" height="690.000000pt" viewBox="0 0 690.000000 690.000000"
 preserveAspectRatio="xMidYMid meet">

<g transform="translate(0.000000,690.000000) scale(0.100000,-0.100000)"
fill="#000000" stroke="none">
<path d="M1400 6838 c-143 -76 -257 -152 -381 -256 -113 -94 -193 -185 -269
-305 -30 -47 -61 -87 -67 -87 -8 0 -13 -13 -13 -30 0 -21 -8 -36 -30 -52 -56
-41 -179 -216 -166 -237 3 -5 -3 -11 -13 -14 -21 -5 -118 -227 -187 -427 -80
-234 -151 -562 -141 -656 3 -30 1 -56 -4 -59 -5 -4 -9 -37 -9 -76 0 -55 3 -69
15 -69 9 0 15 -9 15 -25 0 -14 -4 -25 -10 -25 -5 0 -10 5 -10 10 0 6 -4 10 -9
10 -5 0 -11 -21 -15 -47 -9 -72 -26 -241 -31 -303 -2 -30 -8 -116 -14 -190
-14 -180 -21 -300 -15 -275 11 43 14 49 25 38 8 -8 6 -21 -4 -44 -8 -19 -20
-63 -26 -99 -11 -70 -10 -260 1 -232 4 9 7 -15 6 -54 0 -40 3 -77 6 -83 4 -6
2 -19 -4 -30 -6 -13 -10 -158 -10 -408 0 -310 3 -407 16 -483 8 -52 18 -125
21 -162 3 -37 9 -65 14 -63 4 3 11 -11 14 -32 18 -110 54 -237 117 -408 84
-225 112 -285 174 -360 l46 -57 -12 -131 c-6 -73 -15 -177 -20 -232 -5 -55 -9
-133 -10 -172 0 -93 -10 -94 -94 -9 -149 148 -204 352 -213 783 -4 157 -7 203
-18 207 -20 7 -27 -84 -23 -294 l4 -175 2 197 c1 118 6 199 12 203 7 4 10 -89
10 -272 1 -305 15 -464 51 -578 19 -59 32 -79 83 -130 34 -33 89 -76 123 -95
l62 -35 -5 -100 c-3 -55 -9 -140 -13 -190 -10 -131 -3 -225 16 -225 13 0 14
10 9 63 -7 64 7 179 42 352 l19 89 6 -134 c3 -74 10 -157 16 -185 6 -27 13
-80 17 -117 6 -67 6 -68 35 -68 16 0 29 1 29 3 0 2 -11 35 -23 73 -42 122 -60
270 -54 433 5 160 22 249 88 471 23 74 56 185 74 246 18 61 45 171 60 245 14
74 29 142 33 152 4 11 18 -49 36 -155 15 -95 47 -258 71 -363 72 -320 72 -323
42 -388 -30 -66 -106 -151 -159 -178 -20 -10 -55 -19 -76 -19 -22 0 -45 -6
-52 -15 -31 -37 158 -72 221 -40 19 9 46 28 61 42 l26 25 7 -68 c20 -224 28
-288 46 -369 10 -49 19 -90 19 -92 0 -2 16 -3 35 -3 32 0 35 2 30 22 -2 13
-12 55 -20 93 -15 67 -45 264 -60 387 -4 39 -12 61 -23 67 -15 8 -13 11 10 20
14 5 28 18 31 28 5 22 8 9 32 -122 20 -112 83 -304 136 -413 l40 -82 200 0
201 0 -37 41 c-20 22 -50 62 -66 87 -35 55 -35 64 12 247 16 65 29 134 28 154
-1 26 -5 16 -14 -37 -16 -87 -52 -209 -70 -235 -11 -15 -13 2 -17 110 -6 155
16 398 56 628 17 93 70 420 91 558 7 42 16 81 20 85 5 4 5 -1 2 -11 -4 -10
-10 -123 -13 -250 -6 -246 2 -349 47 -597 54 -298 156 -590 204 -590 8 0 15
-6 15 -12 0 -19 79 -101 128 -133 39 -26 47 -27 113 -22 77 7 141 37 178 83
37 47 22 47 -30 0 -45 -41 -89 -60 -89 -38 0 4 -16 18 -35 31 -44 30 -87 104
-115 199 -29 101 -28 123 8 168 59 75 119 298 129 482 3 56 8 100 10 98 3 -3
16 -55 29 -117 29 -137 55 -220 105 -324 69 -147 209 -295 263 -279 39 12 41
24 3 24 -38 0 -78 31 -126 98 -28 40 -15 46 39 20 32 -16 68 -23 133 -26 80
-4 89 -7 97 -27 8 -22 50 -55 70 -55 18 0 11 28 -9 35 -20 6 -62 99 -82 185
-10 39 -14 143 -14 355 0 258 3 325 23 475 35 258 37 265 44 120 11 -204 80
-485 160 -643 62 -125 143 -244 177 -261 37 -20 42 -20 67 -1 18 14 18 14 -3
8 -28 -7 -83 26 -105 64 -44 75 -82 388 -74 607 7 172 23 343 35 364 4 8 11
-44 14 -115 6 -123 42 -367 72 -485 26 -103 76 -215 119 -266 67 -80 136 -118
144 -79 3 15 0 18 -18 12 -17 -5 -30 2 -64 37 -76 79 -111 205 -118 425 -2 46
-1 83 2 83 3 0 13 -28 22 -63 23 -89 64 -171 108 -216 83 -86 224 -121 289
-73 24 18 35 20 50 12 25 -13 61 -13 61 0 0 5 -16 12 -36 16 -27 5 -41 16 -61
47 -53 83 -101 246 -123 407 -6 47 -13 101 -16 120 -2 19 5 4 16 -34 27 -88
118 -281 154 -324 16 -18 49 -44 75 -59 25 -14 54 -33 63 -41 12 -10 28 -12
52 -8 48 9 53 22 11 30 -98 19 -165 202 -165 456 0 86 11 82 29 -10 17 -87 65
-200 107 -252 98 -122 116 -149 111 -163 -4 -8 0 -34 7 -57 36 -111 92 -260
127 -337 21 -46 36 -88 32 -95 -4 -6 -22 -30 -40 -54 -48 -64 -45 -94 42 -379
5 -16 1 -24 -14 -32 -19 -11 -52 -54 -100 -133 -19 -32 -20 -38 -7 -38 9 0 28
24 45 58 16 31 43 70 59 85 29 28 30 28 37 8 7 -24 25 -28 25 -7 0 8 -16 63
-36 123 -19 59 -41 143 -48 186 -14 86 -9 104 51 160 l30 28 32 -52 c17 -28
34 -49 37 -47 3 3 -20 45 -50 93 -31 48 -70 122 -87 164 -50 119 -119 320
-119 345 0 13 -29 108 -64 212 -35 104 -70 218 -76 254 -13 72 -17 263 -6 296
7 23 87 63 134 68 32 4 39 -4 76 -77 47 -95 218 -343 343 -500 35 -44 63 -84
63 -89 0 -6 7 -8 15 -4 16 6 42 -38 89 -154 15 -36 54 -120 87 -187 36 -72 58
-128 53 -135 -4 -7 -4 -10 1 -6 4 4 18 -12 31 -35 43 -77 124 -240 120 -244
-2 -2 -26 10 -54 26 -28 17 -82 45 -119 62 -79 38 -148 83 -181 117 -17 17
-27 21 -34 14 -14 -14 -3 -41 19 -49 10 -4 38 -21 63 -39 38 -27 96 -59 294
-163 17 -9 36 -23 43 -31 15 -17 74 -130 68 -130 -2 0 -41 9 -87 20 -93 22
-122 25 -113 10 3 -6 17 -10 31 -10 17 0 23 -4 18 -12 -4 -6 -3 -8 3 -5 5 3
36 -2 69 -12 32 -10 65 -16 72 -13 13 4 71 -53 72 -70 0 -5 9 -18 19 -30 10
-13 44 -53 75 -89 30 -37 78 -83 105 -103 l49 -36 483 0 c363 1 487 4 498 13
12 9 13 9 7 0 -5 -9 1 -13 18 -13 17 0 26 5 26 16 0 13 6 15 28 9 15 -3 28
-11 30 -16 2 -5 102 -9 226 -9 l223 0 84 34 84 34 3 403 c1 226 -2 399 -6 394
-24 -27 -240 -317 -286 -383 -29 -42 -90 -131 -136 -197 -45 -66 -99 -151
-119 -189 -20 -38 -42 -71 -50 -74 -8 -3 -11 0 -7 6 6 10 13 211 18 527 1 72
-2 146 -6 166 -8 34 -6 37 27 57 l36 21 0 328 c1 180 4 343 7 361 4 20 2 32
-5 32 -6 0 -11 19 -11 48 0 72 31 364 41 387 5 11 9 34 8 50 -1 17 19 92 44
168 26 80 41 140 35 143 -5 3 -2 11 7 17 8 7 31 55 49 107 19 52 47 127 64
165 61 141 112 404 112 575 0 37 -5 71 -12 78 -8 8 -8 15 1 26 8 10 9 20 3 33
-5 10 -17 34 -25 55 -15 34 -15 36 4 41 18 5 18 8 5 45 -36 102 -107 206 -135
197 -14 -4 -20 1 -25 20 -9 34 -1 45 32 45 15 0 41 4 59 9 37 11 75 0 183 -56
41 -21 79 -39 83 -42 5 -2 7 7 5 20 -2 19 -21 33 -83 64 -69 33 -89 39 -145
39 -126 0 -277 -22 -372 -54 -51 -18 -113 -32 -138 -33 l-45 -2 2 35 c10 166
-4 392 -33 537 -16 83 -16 83 9 148 30 78 26 86 -6 13 l-23 -52 -23 90 c-13
49 -44 147 -68 218 -24 71 -42 130 -40 132 7 8 116 -130 161 -206 45 -74 48
-84 36 -103 -12 -20 -12 -21 3 -9 14 12 18 8 35 -25 47 -91 57 -149 56 -328
-1 -181 -16 -283 -54 -359 -10 -22 -17 -42 -15 -44 9 -9 71 24 108 56 26 24
42 50 52 86 18 64 37 224 34 292 -2 45 2 57 29 92 58 73 66 104 66 242 -1 69
-6 143 -12 165 -9 34 -10 30 -4 -30 18 -183 0 -308 -50 -362 -29 -31 -36 -29
-44 15 -4 20 -24 92 -45 160 -45 143 -73 247 -95 352 -43 205 -144 420 -270
572 -42 51 -166 152 -282 230 -75 50 -428 240 -472 253 -14 4 -42 23 -62 41
-42 37 -98 69 -98 55 0 -5 15 -18 34 -29 18 -11 42 -32 52 -47 46 -65 71 -88
147 -138 151 -99 351 -267 517 -436 178 -181 266 -293 309 -396 16 -37 33 -71
39 -77 16 -16 40 6 44 40 3 17 7 5 12 -33 5 -33 22 -106 38 -163 17 -57 28
-105 25 -108 -3 -3 -25 32 -50 78 -58 105 -136 215 -259 365 -121 148 -195
224 -327 338 -58 50 -142 123 -188 163 -47 39 -89 72 -94 72 -5 0 -9 -10 -9
-22 0 -14 24 -49 60 -88 100 -108 362 -438 437 -550 97 -145 131 -218 195
-410 63 -189 76 -236 83 -317 5 -54 4 -52 -20 37 -104 391 -253 657 -555 991
-67 74 -155 181 -196 238 -41 56 -121 154 -177 216 -94 104 -124 131 -133 122
-2 -2 48 -64 112 -138 123 -142 193 -241 268 -379 26 -47 77 -132 115 -190
128 -196 286 -524 350 -724 38 -118 35 -139 -3 -29 -26 74 -58 143 -225 483
-99 204 -260 452 -401 620 -25 30 -83 108 -129 172 -46 65 -94 124 -106 132
-13 9 9 -28 50 -82 108 -145 106 -152 -7 -39 -377 375 -554 533 -763 679 -98
69 -354 202 -490 256 -230 90 -565 188 -532 156 4 -4 -19 -19 -51 -34 -31 -15
-92 -55 -134 -89 -70 -57 -111 -101 -322 -350 -38 -45 -71 -79 -74 -76 -3 2 2
22 11 42 10 21 38 101 65 178 26 77 52 147 57 155 5 8 10 21 11 30 1 8 14 50
28 93 22 69 23 78 8 72 -9 -4 -48 -15 -87 -25 -75 -19 -229 -79 -335 -129 -36
-17 -72 -31 -80 -31 -8 0 104 53 249 118 196 87 270 125 285 145 28 38 14 57
-65 84 -62 22 -77 22 -475 23 -470 0 -445 3 -714 -94 -171 -62 -258 -109 -430
-229 -156 -110 -277 -231 -320 -322 -19 -38 -34 -71 -34 -72 -1 -1 -14 -5 -29
-8 -24 -6 -28 -5 -27 11 4 37 0 39 -24 9 -45 -56 -35 -20 17 65 89 144 283
328 482 456 33 21 123 71 200 111 122 63 135 72 105 73 -24 0 -72 -20 -150
-62z m909 -312 c-2 -2 -20 -6 -39 -10 -25 -4 -31 -3 -20 4 14 9 69 15 59 6z
m-19 -267 c12 -7 11 -8 -5 -8 -11 0 -29 7 -40 15 -19 16 -19 16 5 9 14 -4 32
-11 40 -16z m50 -19 c8 -5 11 -10 5 -10 -5 0 -17 5 -25 10 -8 5 -10 10 -5 10
6 0 17 -5 25 -10z m-215 -70 c3 -5 -1 -10 -9 -10 -9 0 -16 5 -16 10 0 6 4 10
9 10 6 0 13 -4 16 -10z m-1395 -59 c0 -4 -25 -28 -56 -52 -30 -24 -75 -68
-100 -98 -24 -29 -44 -49 -44 -44 0 21 74 106 133 153 68 54 67 54 67 41z
m1865 -106 c-19 -48 -35 -94 -35 -102 0 -21 -33 -80 -37 -67 -4 12 51 176 83
249 34 77 25 9 -11 -80z m2733 -268 c247 -131 377 -222 524 -367 121 -119 129
-130 177 -230 58 -125 83 -206 79 -257 l-3 -38 -28 52 c-113 215 -317 441
-619 686 -59 47 -145 111 -191 141 -86 57 -130 96 -108 96 7 0 83 -37 169 -83z
m-3828 -383 c0 -2 -9 0 -20 6 -11 6 -20 13 -20 16 0 2 9 0 20 -6 11 -6 20 -13
20 -16z m2843 -14 c217 -67 414 -205 469 -330 15 -32 28 -124 44 -305 5 -67
-19 -251 -46 -345 -5 -19 -10 -46 -10 -61 0 -58 -32 -134 -72 -171 -45 -42
-63 -95 -46 -137 6 -14 12 -46 13 -71 3 -61 22 -180 29 -187 13 -13 14 7 6
142 -5 110 -4 147 7 173 12 30 33 36 33 10 0 -38 161 -196 242 -237 14 -7 29
-22 31 -33 10 -36 8 -367 -3 -475 -5 -59 -17 -205 -25 -323 -17 -242 -34 -438
-41 -458 -3 -10 -10 -9 -31 6 -48 34 -133 73 -144 66 -6 -3 -25 -3 -43 0 l-33
6 3 68 c2 37 8 83 13 102 14 43 14 90 2 90 -6 0 -13 -20 -17 -45 -6 -43 -23
-72 -25 -43 0 7 -13 -32 -29 -87 -33 -119 -78 -255 -128 -383 -29 -76 -43
-100 -76 -127 -23 -18 -57 -35 -76 -37 -19 -3 -67 -12 -106 -21 -40 -9 -78
-18 -85 -19 -22 -5 -22 38 -1 136 50 225 53 271 55 717 0 270 -4 460 -11 524
-43 367 -107 638 -217 918 -42 109 -75 200 -72 203 2 3 20 -24 40 -59 19 -35
53 -88 76 -118 48 -64 163 -285 216 -419 47 -116 66 -143 29 -40 -55 153 -170
377 -245 476 -36 46 -119 209 -119 232 0 17 51 20 85 6 18 -7 35 -11 38 -8 3
3 10 -4 17 -15 13 -25 42 -27 60 -6 7 8 16 15 21 15 14 0 42 -62 48 -104 3
-22 11 -41 16 -43 15 -5 5 89 -12 108 -16 18 -18 40 -7 82 4 16 0 52 -9 85 -8
31 -21 91 -27 132 -6 41 -15 82 -19 90 -4 8 -8 58 -10 111 l-2 95 40 51 c32
41 76 83 87 83 1 0 31 -9 67 -20z m762 -241 c88 -227 183 -568 210 -761 8 -57
15 -177 15 -266 0 -174 -31 -561 -56 -702 -21 -117 -65 -302 -76 -320 -7 -12
-8 -10 -4 5 3 11 14 56 25 100 39 156 61 313 76 539 29 436 17 596 -66 955
-46 198 -90 332 -187 571 -45 111 -49 125 -18 69 14 -26 50 -111 81 -190z
m-3030 41 c3 -6 -1 -7 -9 -4 -18 7 -21 14 -7 14 6 0 13 -4 16 -10z m568 -268
c92 -31 167 -59 167 -62 -1 -3 -27 -17 -58 -31 l-58 -26 -41 32 c-23 18 -75
51 -115 75 -40 24 -86 52 -103 62 l-30 19 35 -6 c19 -3 110 -32 203 -63z
m-111 -186 l28 -18 -43 -30 c-23 -17 -60 -48 -83 -69 l-40 -39 -30 32 c-102
115 -244 293 -252 318 -10 28 -4 26 191 -73 111 -57 214 -111 229 -121z m1353
-8 c31 -60 53 -113 49 -120 -4 -7 -3 -8 4 -4 7 4 14 -4 18 -21 3 -15 15 -47
25 -71 39 -86 77 -188 83 -222 l6 -35 -15 35 -14 35 1 -50 c1 -27 5 -57 9 -65
6 -13 16 -37 24 -60 1 -3 4 -12 8 -20 3 -8 11 -33 17 -55 6 -22 18 -65 26 -95
38 -136 65 -257 62 -285 -1 -17 1 -35 4 -40 3 -6 8 -35 11 -65 3 -30 4 -46 1
-35 -14 52 -26 86 -31 81 -9 -8 -13 -77 -5 -72 4 2 7 -36 7 -84 0 -49 -2 -86
-4 -84 -3 2 -8 44 -12 92 -38 459 -152 900 -343 1325 -55 123 -10 67 69 -85z
m-840 37 c88 -37 197 -80 242 -97 l81 -30 -29 -57 c-44 -83 -54 -94 -84 -89
-22 5 -39 -7 -103 -67 -114 -107 -180 -212 -182 -286 0 -16 -19 -51 -45 -85
-25 -31 -45 -61 -45 -66 0 -15 38 11 63 44 l25 32 8 -75 c5 -41 10 -61 12 -46
7 57 35 16 62 -92 24 -92 41 33 20 139 -5 28 -5 59 1 84 10 38 56 116 68 116
3 -1 17 -23 30 -51 23 -49 23 -51 5 -72 -18 -20 -18 -20 10 1 l29 23 34 -63
c40 -76 87 -120 184 -173 59 -31 88 -41 142 -45 37 -3 67 -1 67 3 0 5 8 7 18
6 33 -3 42 1 42 20 0 32 -11 50 -26 44 -8 -3 -12 -9 -9 -13 3 -5 1 -11 -5 -15
-5 -3 -10 -1 -10 5 0 7 -7 5 -16 -4 -16 -16 -45 -9 -59 14 -4 6 -15 8 -26 5
-11 -4 -19 -2 -19 4 0 6 -3 10 -7 10 -21 -3 -31 3 -41 26 -10 21 -9 25 4 25 8
0 12 5 9 10 -4 6 -13 7 -23 1 -23 -11 -42 -3 -42 19 0 51 28 65 54 28 15 -21
16 -21 21 -2 12 38 23 49 49 52 14 2 26 10 26 18 0 8 5 14 11 14 5 0 8 -4 5
-8 -3 -5 8 -6 25 -4 17 2 39 -3 54 -12 24 -16 34 -10 16 10 -4 5 -13 24 -19
42 -10 29 -9 33 5 30 10 -2 21 -18 26 -38 5 -19 13 -52 20 -73 8 -28 8 -50 0
-78 -6 -22 -7 -42 -2 -45 13 -8 24 65 24 161 0 78 -4 98 -28 147 -47 96 -151
174 -248 185 -91 11 -49 33 64 33 81 0 160 -35 218 -97 64 -68 204 -355 315
-648 l57 -150 -2 -150 c-1 -82 0 -147 3 -144 3 2 6 39 7 81 1 43 5 75 9 73 17
-11 59 -309 81 -589 14 -163 5 -253 -46 -476 -14 -58 -26 -120 -27 -139 l-3
-33 -130 -45 c-424 -143 -435 -146 -600 -119 -202 32 -365 89 -508 177 -54 33
-153 73 -208 83 -19 3 -51 15 -71 25 -20 10 -64 24 -97 32 -34 7 -61 16 -61
20 0 4 -19 7 -41 7 -23 1 -47 6 -52 11 -6 6 -23 11 -38 11 -33 0 -59 32 -59
71 0 33 60 70 82 51 9 -7 19 -8 28 -2 22 14 36 12 54 -6 15 -14 16 -14 16 5 0
14 -6 21 -19 21 -11 0 -26 7 -35 15 -8 8 -21 15 -30 15 -8 0 -37 22 -65 49
-47 46 -51 53 -51 98 0 26 -7 61 -15 77 -8 15 -15 34 -15 40 0 11 80 96 90 96
3 0 5 -26 5 -57 0 -40 4 -57 12 -56 7 2 45 -22 85 -52 71 -53 228 -138 278
-150 18 -5 21 -4 11 4 -13 8 -13 12 0 27 13 16 12 16 -8 5 -19 -9 -28 -9 -50
3 -27 15 -28 16 -4 13 20 -2 27 5 39 36 11 29 12 41 4 49 -9 9 -12 3 -12 -25
0 -30 -4 -37 -19 -37 -12 0 -23 11 -30 30 -5 17 -14 30 -18 30 -19 -1 -33 -18
-27 -33 3 -10 1 -17 -5 -17 -6 0 -11 17 -11 39 l0 38 43 1 c66 1 105 8 119 20
8 6 26 15 40 21 20 8 28 7 32 -5 3 -8 12 -14 19 -14 22 0 34 -20 41 -68 6 -41
4 -46 -31 -78 -21 -19 -43 -32 -50 -30 -7 3 -13 1 -13 -4 0 -5 -10 -11 -22
-13 -13 -2 1 -5 30 -6 45 -1 55 -4 59 -21 l6 -21 18 20 c23 24 24 35 4 27 -19
-7 -19 13 0 38 21 28 19 109 -4 154 -26 49 -92 112 -171 161 -84 53 -108 64
-145 65 -22 1 -30 6 -29 19 1 11 -5 17 -18 17 -11 0 -22 8 -25 19 -3 13 -17
21 -44 25 -21 3 -39 11 -39 17 0 5 -7 9 -16 7 -11 -2 -20 7 -26 24 -8 22 -5
33 11 54 12 15 21 41 21 60 0 19 5 34 10 34 6 0 20 11 32 25 25 29 38 32 38 8
0 -14 4 -12 17 8 9 14 25 32 36 38 18 12 19 11 12 -6 -4 -10 -10 -27 -12 -38
-5 -16 -3 -18 7 -8 7 6 14 30 16 52 1 21 7 48 13 59 6 12 11 46 11 76 l0 56
43 2 c23 0 52 0 65 -1 15 -1 26 6 34 25 9 20 10 28 1 31 -12 4 -6 43 8 43 5 0
15 13 24 30 17 34 19 44 5 35 -13 -8 -12 1 1 48 15 56 28 190 20 202 -7 9 -11
21 -26 90 -3 11 9 -7 25 -40 16 -33 30 -66 30 -72 0 -7 5 -13 10 -13 6 0 10 8
10 18 0 23 -26 105 -41 134 -7 13 -14 37 -15 54 -2 17 -16 51 -33 75 -16 25
-48 76 -70 114 -22 39 -45 69 -51 67 -7 -1 -19 5 -27 15 -11 13 -11 11 1 -7 9
-14 23 -38 31 -55 l16 -30 -23 30 c-13 17 -58 74 -102 128 -43 54 -77 99 -75
101 2 1 36 28 74 58 39 31 94 70 123 88 60 37 43 43 144 -50 26 -23 56 -49 67
-56 11 -8 54 -55 95 -104 l76 -90 -61 -65 c-64 -68 -101 -132 -118 -204 -13
-60 8 -49 29 15 23 71 72 147 104 162 15 8 36 29 47 46 10 18 41 47 68 64 60
39 154 122 146 130 -3 3 -18 -6 -33 -20 -15 -14 -47 -38 -72 -53 -25 -15 -55
-37 -67 -48 -13 -11 -24 -19 -26 -16 -2 2 -20 33 -40 69 -20 37 -85 120 -146
187 l-110 121 52 27 c33 17 63 25 82 22 17 -2 102 -35 190 -72z m885 -50 c0
-8 -2 -15 -4 -15 -2 0 -6 7 -10 15 -3 8 -1 15 4 15 6 0 10 -7 10 -15z m-1842
-172 c64 -110 104 -179 160 -274 13 -21 21 -39 19 -39 -3 0 -14 15 -25 33 -10
17 -50 84 -89 147 -77 129 -145 250 -139 250 3 0 36 -53 74 -117z m1402 102
c0 -8 -2 -15 -4 -15 -2 0 -6 7 -10 15 -3 8 -1 15 4 15 6 0 10 -7 10 -15z m-35
-29 c19 -8 35 -19 35 -25 0 -8 -122 -81 -135 -81 -3 0 8 27 25 60 17 33 33 60
35 60 3 0 21 -7 40 -14z m81 -42 c-3 -9 -6 -20 -6 -25 0 -5 -4 -9 -10 -9 -5 0
-10 7 -10 15 0 8 5 15 11 15 5 0 7 5 4 10 -3 6 -1 10 5 10 7 0 9 -7 6 -16z
m-1598 -179 c122 -117 289 -313 353 -415 54 -85 149 -292 149 -325 0 -21 -13
-19 -75 11 -110 52 -279 283 -381 522 -60 141 -73 164 -149 272 -75 107 -81
110 103 -65z m1320 -74 c-13 -15 -25 -27 -27 -25 -4 4 39 54 47 54 2 0 -7 -13
-20 -29z m-158 -5 c0 -3 -4 -8 -10 -11 -5 -3 -10 -1 -10 4 0 6 5 11 10 11 6 0
10 -2 10 -4z m490 -31 c0 -18 -39 -45 -56 -38 -20 7 -17 50 3 62 21 11 53 -3
53 -24z m-379 -18 c-10 -9 -11 -8 -5 6 3 10 9 15 12 12 3 -3 0 -11 -7 -18z
m194 -32 c0 -22 -31 -33 -47 -17 -17 17 -1 44 24 40 15 -2 23 -10 23 -23z
m-689 -67 c20 -32 34 -61 32 -64 -3 -2 -26 30 -51 72 -26 42 -40 71 -32 64 8
-7 31 -39 51 -72z m-270 -119 c82 -96 156 -207 199 -298 27 -58 28 -64 14 -89
-16 -30 -93 -77 -109 -67 -5 3 -10 17 -10 30 0 42 -66 225 -144 400 -59 133
-69 163 -48 139 15 -17 59 -69 98 -115z m-127 94 c10 -21 21 -49 25 -63 7 -25
-15 12 -41 73 -19 40 -6 33 16 -10z m973 0 c24 -22 23 -35 -7 -63 -24 -22 -26
-23 -42 -7 -16 16 -16 19 1 52 22 40 23 41 48 18z m2795 -5 c-3 -8 -6 -5 -6 6
-1 11 2 17 5 13 3 -3 4 -12 1 -19z m-3717 -123 c0 -5 -5 -3 -10 5 -5 8 -10 20
-10 25 0 6 5 3 10 -5 5 -8 10 -19 10 -25z m1045 25 c7 -11 -12 -40 -25 -40
-11 0 -21 30 -14 41 7 12 31 11 39 -1z m-418 -32 c-3 -7 -5 -2 -5 12 0 14 2
19 5 13 2 -7 2 -19 0 -25z m-1509 -367 c136 -153 212 -264 252 -369 l20 -52
-24 0 c-14 0 -38 -12 -55 -26 l-31 -26 -9 24 c-72 189 -167 386 -255 528 -25
41 -46 78 -46 82 0 5 21 -15 46 -44 25 -29 71 -82 102 -117z m971 124 c0 -5
-4 -3 -9 5 -5 8 -9 22 -9 30 0 16 17 -16 18 -35z m3569 -126 l5 -117 -28 5
c-24 5 -26 9 -21 37 4 17 10 75 13 129 8 132 24 104 31 -54z m51 -8 c1 -63 -2
-111 -6 -108 -3 4 -7 64 -9 134 -1 75 2 120 6 108 5 -11 9 -71 9 -134z m-3600
74 c0 -5 -4 -3 -9 5 -5 8 -9 22 -9 30 0 16 17 -16 18 -35z m-2264 -62 c15
-192 98 -662 135 -757 5 -13 39 -138 76 -277 60 -225 68 -265 68 -349 2 -167
-12 -392 -50 -833 l-7 -78 -34 48 c-95 132 -231 500 -259 696 -48 348 -44 849
10 1234 14 98 28 229 32 291 4 61 10 112 15 112 4 0 10 -39 14 -87z m6125 67
c-14 -4 -36 -8 -50 -8 l-25 0 25 8 c14 4 36 8 50 8 l25 0 -25 -8z m-3655 -89
c-7 -40 -8 -41 -46 -41 l-40 0 43 43 c24 23 45 41 46 40 2 -1 1 -20 -3 -42z
m2466 -161 c14 -176 6 -391 -21 -605 -20 -155 -57 -340 -79 -398 -12 -31 -108
-137 -124 -137 -6 0 -1 10 10 23 28 30 80 135 93 188 6 24 18 118 26 209 9 91
17 183 19 205 14 147 45 587 46 652 1 106 17 36 30 -137z m547 110 c37 0 41
-15 51 -165 13 -205 2 -350 -32 -407 -31 -53 -83 -103 -121 -118 -29 -10 -29
-10 -22 22 26 122 46 291 56 466 6 111 13 209 16 217 5 13 8 13 21 0 8 -8 22
-15 31 -15z m-3230 -31 c26 -10 28 -48 8 -142 -11 -56 -26 -68 -26 -21 0 20
-27 101 -55 167 -7 16 -4 17 21 11 16 -4 39 -11 52 -15z m3572 -92 c0 -66 -30
-137 -78 -189 -69 -74 -112 -91 -78 -31 27 48 54 118 76 202 l22 80 29 -15
c23 -11 29 -21 29 -47z m146 -13 c83 -32 271 -80 348 -89 31 -4 67 -16 80 -26
13 -11 34 -19 47 -19 22 0 22 -1 16 -107 -12 -194 -59 -426 -117 -573 -32 -82
-124 -352 -155 -455 -15 -49 -34 -99 -41 -110 -16 -22 -19 -65 -5 -65 5 0 7
-9 4 -20 -3 -11 -9 -20 -14 -20 -5 0 -9 -28 -8 -62 0 -35 -4 -106 -10 -158 -6
-52 -11 -105 -11 -118 0 -22 -3 -23 -42 -18 -24 4 -77 8 -118 11 -41 2 -97 11
-125 20 -29 9 -110 18 -195 21 -122 6 -151 4 -184 -10 -47 -20 -177 -106 -229
-153 -20 -18 -41 -33 -45 -33 -4 0 -13 12 -19 28 -6 15 -34 83 -63 152 -45
110 -130 343 -130 358 0 3 8 -2 18 -11 21 -19 177 -94 215 -103 54 -12 25 12
-62 54 -153 72 -228 175 -245 333 l-6 56 65 42 c35 23 79 59 97 80 l33 39 28
-22 28 -22 -21 -19 c-26 -23 -26 -45 0 -45 11 0 20 4 20 9 0 46 98 -27 173
-128 22 -30 42 -50 45 -43 7 23 -47 99 -114 161 l-67 61 20 23 c45 51 114 192
146 296 19 61 36 109 39 105 14 -13 78 28 139 90 52 52 75 86 105 152 22 47
43 83 50 80 20 -8 89 30 124 70 19 21 43 57 52 79 9 22 26 61 37 88 11 26 22
47 24 47 3 0 36 -12 73 -26z m-3856 -130 c11 -36 20 -74 19 -83 -1 -15 -27 61
-43 123 -13 53 4 24 24 -40z m1897 4 c-3 -7 -5 -2 -5 12 0 14 2 19 5 13 2 -7
2 -19 0 -25z m-7 -29 c0 -5 -4 -9 -10 -9 -5 0 -10 7 -10 16 0 8 5 12 10 9 6
-3 10 -10 10 -16z m-2433 -66 c-3 -10 -5 -4 -5 12 0 17 2 24 5 18 2 -7 2 -21
0 -30z m2440 -85 c-2 -24 -4 -5 -4 42 0 47 2 66 4 43 2 -24 2 -62 0 -85z
m1294 -138 c-38 -275 -67 -385 -122 -471 -17 -27 -33 -49 -36 -49 -2 0 -19 11
-38 25 l-33 26 42 62 c84 125 167 375 183 553 l8 79 3 -75 c2 -41 -2 -109 -7
-150z m-3400 77 l22 -89 -26 -25 -25 -26 1 104 c0 57 -2 115 -7 129 -5 18 -5
21 3 10 5 -8 20 -54 32 -103z m-352 21 c14 -82 25 -218 18 -218 -3 0 -15 33
-27 73 -11 39 -27 86 -35 102 -27 61 -28 80 -3 93 35 16 35 16 47 -50z m561
27 c0 -8 -26 -28 -57 -45 -32 -16 -68 -37 -80 -46 -21 -15 -23 -15 -23 0 0 9
9 25 19 35 11 11 16 23 13 27 -4 4 -1 4 6 0 7 -4 9 -12 6 -18 -4 -6 -1 -9 7
-6 8 3 13 13 11 23 -2 10 1 14 7 10 6 -3 14 1 17 9 3 9 10 13 15 10 5 -3 9 0
9 5 0 6 11 11 25 11 15 0 25 -6 25 -15z m-414 -150 c19 -55 38 -125 41 -155 5
-55 4 -55 -45 -110 -49 -53 -51 -54 -69 -37 -16 16 -18 34 -16 170 2 84 6 181
9 216 l6 65 19 -25 c10 -13 35 -69 55 -124z m434 74 c0 -3 -34 -30 -76 -60
-42 -30 -104 -84 -138 -120 -79 -85 -82 -86 -78 -34 4 40 10 48 78 107 93 78
196 141 206 125 4 -7 8 -15 8 -18z m81 6 l34 -14 -52 -1 c-41 0 -53 4 -53 15
0 19 28 19 71 0z m132 -104 c11 -11 -3 -41 -19 -41 -13 0 -44 37 -44 53 0 10
50 0 63 -12z m-153 -9 c0 -5 -7 -9 -15 -9 -8 0 -12 4 -9 9 3 4 9 8 15 8 5 0 9
-4 9 -8z m51 -101 c23 -19 23 -21 7 -48 -21 -36 -32 -39 -57 -14 -17 17 -19
25 -10 51 13 35 27 38 60 11z m149 9 c0 -5 -4 -10 -10 -10 -5 0 -10 5 -10 10
0 6 5 10 10 10 6 0 10 -4 10 -10z m-506 -77 c-3 -21 -17 -66 -30 -100 -13 -34
-24 -64 -24 -68 0 -4 19 7 42 24 23 17 46 31 50 31 4 0 8 -18 8 -41 0 -33 -6
-46 -32 -70 -18 -16 -36 -29 -40 -29 -5 0 -8 -5 -8 -11 0 -17 51 -1 79 24 l24
22 -7 -37 c-8 -45 10 -61 35 -29 l18 21 15 -22 c18 -25 20 -56 7 -77 -19 -30
-126 -4 -261 64 -55 28 -140 101 -140 121 0 9 4 13 9 10 16 -10 41 5 41 25 0
11 17 42 37 69 29 39 39 47 46 35 9 -16 33 -20 39 -6 2 7 87 78 96 80 2 1 0
-16 -4 -36z m456 -8 c0 -8 -4 -15 -10 -15 -5 0 -7 7 -4 15 4 8 8 15 10 15 2 0
4 -7 4 -15z m-29 -28 c-1 -4 -1 -12 -1 -19 0 -6 -9 -3 -20 7 -26 23 -26 36 1
27 11 -5 20 -11 20 -15z m-865 -35 c71 -87 174 -269 174 -309 0 -7 -43 61
-141 222 -27 44 -56 90 -65 103 -27 37 -1 24 32 -16z m198 -68 c10 -25 1 -27
-19 -4 -15 17 -16 20 -3 20 9 0 19 -7 22 -16z m-237 -81 c-3 -10 -5 -4 -5 12
0 17 2 24 5 18 2 -7 2 -21 0 -30z m3439 -172 c-4 -5 -21 -17 -39 -25 l-32 -16
34 30 c33 28 50 33 37 11z m-686 -262 c0 -31 68 -189 124 -288 28 -49 85 -133
123 -181 6 -8 37 -49 67 -90 52 -70 55 -76 39 -89 -16 -12 -15 -13 11 -8 18 3
39 -1 53 -10 21 -14 26 -13 60 8 30 19 49 23 103 21 52 -1 78 4 128 25 62 27
75 46 50 71 -14 14 -15 13 44 33 l47 16 15 -38 c8 -21 21 -41 29 -46 21 -12
60 -101 54 -123 -5 -18 6 -38 190 -340 78 -129 179 -279 198 -295 16 -13 46
-91 38 -99 -4 -3 -1 -6 5 -6 7 0 11 -3 10 -7 -3 -12 89 -184 113 -213 l21 -25
-16 28 c-9 15 -13 27 -9 26 19 -1 188 -279 170 -279 -8 0 -173 72 -182 80 -6
5 -47 25 -92 44 -347 148 -566 280 -828 499 -168 140 -495 495 -495 537 0 4
19 10 43 13 24 3 55 11 70 16 l26 10 -88 133 c-154 233 -201 325 -201 389 0
37 -2 39 -25 33 -24 -6 -24 -5 -14 26 11 30 7 96 -7 133 -4 12 -2 16 7 12 8
-3 34 1 59 8 54 17 60 14 60 -24z m-3593 -101 c-3 -7 -5 -2 -5 12 0 14 2 19 5
13 2 -7 2 -19 0 -25z m953 -42 c-1 -6 -10 0 -20 13 -11 13 -20 28 -20 35 1 6
10 0 20 -13 11 -13 20 -28 20 -35z m393 -448 c-2 -90 -1 -212 4 -273 20 -246
-29 -537 -118 -705 l-24 -45 -3 60 c-4 70 6 154 53 440 35 210 68 462 80 608
4 42 8 77 10 77 2 0 1 -73 -2 -162z m1294 130 c-3 -8 -6 -5 -6 6 -1 11 2 17 5
13 3 -3 4 -12 1 -19z m2603 -57 c52 -11 131 -23 176 -27 45 -4 88 -10 94 -14
10 -6 10 -32 1 -121 -16 -157 -41 -608 -41 -738 0 -66 -4 -101 -9 -92 -19 29
-24 -85 -12 -254 14 -207 14 -245 1 -245 -5 0 -10 8 -11 18 0 9 -27 57 -59
107 -33 50 -97 150 -142 223 -46 74 -111 177 -144 230 -112 176 -221 377 -258
474 -49 131 -86 264 -89 316 -2 41 1 47 45 85 27 22 68 46 95 53 64 18 230 11
353 -15z m675 -1031 c-3 -5 -12 -10 -18 -10 -7 0 -6 4 3 10 19 12 23 12 15 0z
m-1435 -35 c0 -11 -19 -4 -41 15 l-24 21 33 -16 c17 -8 32 -18 32 -20z m1605
-85 c-3 -5 -12 -10 -18 -10 -7 0 -6 4 3 10 19 12 23 12 15 0z m-215 -39 c0 -5
-7 -11 -14 -14 -10 -4 -13 -1 -9 9 6 15 23 19 23 5z m-1094 -168 c-10 -10 -19
5 -10 18 6 11 8 11 12 0 2 -7 1 -15 -2 -18z m-6 -53 c0 -5 -2 -10 -4 -10 -3 0
-8 5 -11 10 -3 6 -1 10 4 10 6 0 11 -4 11 -10z m417 -6 c-3 -3 -12 -4 -19 -1
-8 3 -5 6 6 6 11 1 17 -2 13 -5z m838 -42 c-3 -3 -11 0 -18 7 -9 10 -8 11 6 5
10 -3 15 -9 12 -12z m-1275 -2 c0 -5 -4 -10 -10 -10 -5 0 -10 5 -10 10 0 6 5
10 10 10 6 0 10 -4 10 -10z m147 -16 c-3 -3 -12 -4 -19 -1 -8 3 -5 6 6 6 11 1
17 -2 13 -5z m986 -21 c-7 -2 -19 -2 -25 0 -7 3 -2 5 12 5 14 0 19 -2 13 -5z"/>
<path d="M4347 5250 c-14 -12 -41 -50 -58 -86 l-32 -65 16 -53 c10 -29 17 -63
17 -75 0 -25 40 -105 70 -140 18 -21 23 -22 31 -10 14 22 11 29 -13 29 -12 0
-18 3 -15 7 4 3 -1 16 -12 27 -11 12 -29 50 -41 85 -17 52 -20 76 -14 135 6
69 8 73 55 119 49 47 45 66 -4 27z"/>
<path d="M4349 5103 c-13 -17 -13 -17 6 -3 11 8 22 16 24 17 2 2 0 3 -6 3 -6
0 -17 -8 -24 -17z"/>
<path d="M4538 5077 c-20 -25 -68 -65 -107 -90 -38 -26 -72 -51 -76 -57 -12
-19 20 -10 59 16 l39 27 -7 -67 c-3 -36 -4 -66 0 -66 3 0 13 9 23 21 26 33
100 37 146 9 45 -28 60 -17 22 16 -24 20 -39 24 -98 24 -59 0 -69 3 -70 18 0
9 -2 24 -4 34 -3 17 114 128 135 128 6 0 10 6 8 13 -9 26 -35 16 -70 -26z"/>
<path d="M4750 5009 c0 -19 23 -93 32 -103 14 -17 9 54 -7 84 -16 31 -25 38
-25 19z"/>
<path d="M4782 4860 c-1 -20 -7 -41 -13 -47 -6 -6 -9 -23 -7 -39 4 -27 5 -26
17 14 6 24 10 58 8 75 l-4 32 -1 -35z"/>
<path d="M4666 4842 c-3 -6 3 -21 14 -33 17 -21 21 -22 30 -9 5 8 9 22 7 30
-3 17 -42 26 -51 12z"/>
<path d="M4420 4763 c0 -30 34 -55 84 -60 38 -5 47 -10 60 -37 9 -17 16 -24
16 -15 0 9 -10 29 -22 45 -12 16 -23 30 -24 32 -1 2 -19 5 -40 8 -23 2 -46 13
-56 25 -17 20 -18 21 -18 2z"/>
<path d="M4740 4738 c0 -2 -13 -50 -30 -107 -27 -94 -31 -125 -14 -109 9 9 63
171 64 190 0 9 -4 20 -10 23 -5 3 -10 5 -10 3z"/>
<path d="M4567 4616 c-5 -12 0 -32 13 -53 26 -45 25 -71 -5 -115 -29 -43 -30
-51 -10 -68 10 -9 15 -9 15 -1 0 6 -5 11 -12 11 -6 0 0 12 14 28 50 52 57 122
18 167 -10 11 -19 27 -22 34 -3 12 -6 11 -11 -3z"/>
<path d="M4685 4481 c-42 -25 -85 -78 -85 -104 0 -12 -3 -32 -6 -44 -4 -14 -2
-23 5 -23 6 0 11 14 11 30 0 17 7 44 15 59 17 34 70 81 91 81 8 0 14 5 14 10
0 14 -11 12 -45 -9z"/>
<path d="M4070 4374 c0 -6 7 -19 16 -30 14 -18 14 -18 3 6 -14 31 -19 36 -19
24z"/>
<path d="M4346 3865 c45 -128 101 -375 90 -394 -2 -3 -5 -71 -6 -151 -1 -110
3 -159 15 -205 10 -33 17 -74 16 -92 0 -18 5 -58 12 -90 15 -70 14 -232 -3
-305 -16 -69 -49 -126 -100 -172 -23 -21 -39 -40 -36 -44 10 -9 105 88 125
128 20 39 35 101 50 205 5 39 13 82 16 97 5 17 2 40 -7 60 -32 69 -68 315 -68
458 0 65 -7 157 -15 206 -18 105 -60 258 -81 294 -9 15 -12 17 -8 5z"/>
<path d="M4391 3494 c0 -11 3 -14 6 -6 3 7 2 16 -1 19 -3 4 -6 -2 -5 -13z"/>
<path d="M4402 3455 c0 -11 4 -33 8 -50 7 -27 8 -27 8 -5 0 14 -4 36 -8 50 -6
20 -8 21 -8 5z"/>
<path d="M4381 3044 c0 -11 3 -14 6 -6 3 7 2 16 -1 19 -3 4 -6 -2 -5 -13z"/>
<path d="M4366 2684 c-4 -14 -5 -28 -3 -31 3 -2 8 8 11 23 4 14 5 28 3 31 -3
2 -8 -8 -11 -23z"/>
<path d="M3111 3914 c0 -11 3 -14 6 -6 3 7 2 16 -1 19 -3 4 -6 -2 -5 -13z"/>
<path d="M3110 3881 c0 -5 7 -14 15 -21 16 -14 18 -10 9 14 -6 17 -24 22 -24
7z"/>
<path d="M3614 3709 c-19 -22 -19 -22 4 -10 12 6 22 16 22 21 0 15 -5 12 -26
-11z"/>
<path d="M4113 3140 c0 -25 2 -35 4 -22 2 12 2 32 0 45 -2 12 -4 2 -4 -23z"/>
<path d="M4101 3065 c-2 -48 -39 -203 -61 -262 -33 -88 -59 -133 -108 -186
-26 -27 -38 -45 -27 -39 47 25 107 107 141 194 31 80 67 247 61 289 -4 34 -4
34 -6 4z"/>
<path d="M3217 2673 c10 -23 26 -47 37 -53 17 -11 16 -8 -4 27 -36 60 -53 74
-33 26z"/>
<path d="M3850 2440 c0 -13 11 -13 30 0 12 8 11 10 -7 10 -13 0 -23 -4 -23
-10z"/>
<path d="M3936 2415 c4 -8 13 -15 21 -15 13 0 13 3 3 15 -7 8 -16 15 -21 15
-5 0 -6 -7 -3 -15z"/>
<path d="M292 2630 c0 -19 2 -27 5 -17 2 9 2 25 0 35 -3 9 -5 1 -5 -18z"/>
<path d="M301 2568 c-1 -25 45 -238 58 -268 l12 -25 -6 25 c-5 24 -49 225 -58
265 -4 16 -5 16 -6 3z"/>
<path d="M400 2175 c0 -5 5 -17 10 -25 5 -8 10 -10 10 -5 0 6 -5 17 -10 25 -5
8 -10 11 -10 5z"/>
<path d="M5574 2133 c40 -106 52 -133 59 -133 14 0 7 38 -18 94 -14 31 -30 56
-36 56 -6 0 -8 -7 -5 -17z"/>
<path d="M5465 1811 c-7 -12 23 -32 98 -65 63 -29 77 -31 77 -15 0 5 -26 21
-57 35 -32 13 -70 31 -85 39 -16 9 -29 12 -33 6z"/>
<path d="M6086 1744 c-58 -57 -90 -106 -84 -126 3 -7 15 4 28 23 13 19 45 58
72 87 42 47 57 72 44 72 -2 0 -29 -25 -60 -56z"/>
<path d="M3821 6835 c70 -35 164 -87 209 -115 89 -56 367 -261 520 -384 52
-42 98 -76 102 -76 5 0 12 -8 16 -19 9 -23 262 -288 262 -274 0 13 -28 49
-104 137 -34 38 -61 73 -61 77 0 4 -4 11 -9 16 -6 5 -6 2 -1 -7 5 -8 -3 -3
-18 13 -14 15 -31 27 -37 27 -6 0 -16 12 -21 28 -11 28 -75 85 -260 232 -177
141 -276 209 -449 312 -156 93 -167 98 -220 98 l-55 -1 126 -64z"/>
<path d="M4330 6277 c109 -100 206 -174 216 -164 7 7 -102 104 -160 143 -51
34 -83 46 -56 21z"/>
<path d="M4785 6169 c3 -4 42 -29 88 -55 186 -107 503 -298 520 -312 9 -8 20
-13 23 -9 8 7 -63 58 -151 109 -38 22 -110 66 -160 97 -94 59 -328 183 -320
170z"/>
<path d="M5630 5856 c0 -2 8 -10 18 -17 15 -13 16 -12 3 4 -13 16 -21 21 -21
13z"/>
<path d="M5890 5586 c0 -2 8 -10 18 -17 15 -13 16 -12 3 4 -13 16 -21 21 -21
13z"/>
<path d="M5960 5506 c0 -2 8 -10 18 -17 15 -13 16 -12 3 4 -13 16 -21 21 -21
13z"/>
<path d="M6000 5456 c0 -2 8 -10 18 -17 15 -13 16 -12 3 4 -13 16 -21 21 -21
13z"/>
<path d="M6060 5376 c0 -2 8 -10 18 -17 15 -13 16 -12 3 4 -13 16 -21 21 -21
13z"/>
<path d="M6110 5310 c12 -16 24 -30 26 -30 3 0 -4 14 -16 30 -12 17 -24 30
-26 30 -3 0 4 -13 16 -30z"/>
<path d="M6176 5218 c20 -32 39 -58 41 -58 7 0 -29 58 -55 88 -13 15 -6 1 14
-30z"/>
<path d="M6265 5060 c44 -88 71 -126 37 -52 -32 67 -72 142 -77 142 -3 0 15
-40 40 -90z"/>
<path d="M6326 4945 c36 -99 73 -188 74 -177 0 16 -57 162 -71 182 -9 12 -9
11 -3 -5z"/>
<path d="M6401 4740 c0 -8 4 -24 9 -35 5 -13 9 -14 9 -5 0 8 -4 24 -9 35 -5
13 -9 14 -9 5z"/>
<path d="M83 1790 c0 -25 2 -35 4 -22 2 12 2 32 0 45 -2 12 -4 2 -4 -23z"/>
<path d="M3858 1600 c9 -38 18 -67 22 -65 9 5 -21 135 -30 135 -4 0 0 -31 8
-70z"/>
<path d="M3980 1511 c0 -24 79 -191 91 -191 25 0 14 52 -32 143 -10 22 -19 45
-19 53 0 8 -9 14 -20 14 -13 0 -20 -7 -20 -19z"/>
<path d="M3881 1510 c0 -8 4 -24 9 -35 l9 -20 0 20 c0 11 -4 27 -9 35 -9 13
-10 13 -9 0z"/>
<path d="M4126 1323 c-16 -16 -3 -56 30 -93 20 -21 33 -44 29 -50 -4 -6 -2 -9
4 -8 5 2 34 -26 63 -62 62 -77 166 -176 174 -167 4 3 -18 32 -48 64 -70 75
-228 281 -228 299 0 15 -15 26 -24 17z"/>
<path d="M4360 1112 c0 -23 46 -95 122 -189 32 -40 58 -75 58 -79 0 -15 64
-93 81 -97 44 -12 11 54 -65 130 -35 36 -72 87 -140 196 -36 58 -56 72 -56 39z"/>
<path d="M1546 659 c-3 -17 -5 -46 -5 -63 1 -18 5 -7 10 28 9 63 6 88 -5 35z"/>
<path d="M4222 601 c2 -18 13 -31 37 -42 19 -9 38 -26 43 -39 7 -18 11 -20 22
-11 11 10 33 3 103 -33 48 -24 102 -48 118 -52 l30 -7 -20 23 c-11 12 -18 25
-15 29 3 3 -6 7 -20 9 -41 5 -80 24 -73 35 3 5 1 7 -4 4 -21 -13 -209 85 -199
102 3 4 -2 8 -10 8 -10 0 -14 -8 -12 -26z"/>
<path d="M554 525 c20 -12 31 -14 39 -6 8 8 5 11 -10 11 -12 0 -30 3 -40 6
-10 3 -5 -2 11 -11z"/>
<path d="M4155 458 c-3 -8 0 -28 6 -44 7 -16 11 -36 10 -44 -1 -12 0 -13 8 -1
7 11 11 10 19 -5 9 -16 117 -125 319 -322 27 -27 51 -42 63 -40 15 2 -5 25
-88 101 -114 103 -255 256 -303 327 -20 30 -30 38 -34 28z"/>
<path d="M4091 90 c15 -45 24 -54 15 -15 -4 17 -12 34 -17 40 -5 5 -4 -6 2
-25z"/>
</g>
</svg>
